<svg width="360" height="657" viewBox="0 0 360 657" fill="none" xmlns="http://www.w3.org/2000/svg">
<rect width="360" height="657" fill="#F4883F"/>
<mask id="mask0" mask-type="alpha" maskUnits="userSpaceOnUse" x="0" y="0" width="360" height="657">
<rect width="360" height="657" fill="#F4883F"/>
</mask>
<g mask="url(#mask0)">
<path d="M329.5 0.250003C329.5 11.9861 319.986 21.5 308.25 21.5C296.514 21.5 287 11.9861 287 0.250003C287 -11.486 296.514 -21 308.25 -21C319.986 -21 329.5 -11.486 329.5 0.250003Z" fill="#FD9CC3"/>
<path d="M144 -17.5C144 67.2757 75.2757 136 -9.5 136C-94.2757 136 -163 67.2757 -163 -17.5C-163 -102.276 -94.2757 -171 -9.5 -171C75.2757 -171 144 -102.276 144 -17.5Z" fill="#906AC6"/>
<path fill-rule="evenodd" clip-rule="evenodd" d="M0 541.001V736.838C0.110223 736.838 0.22049 736.838 0.330799 736.838C54.4101 736.838 98.25 692.998 98.25 638.919C98.25 584.84 54.4101 541 0.330799 541C0.22049 541 0.110223 541 0 541.001Z" fill="#FB4C42"/>
<path d="M671 793C671 916.712 565.563 1017 435.5 1017C305.437 1017 200 916.712 200 793C200 669.288 305.437 569 435.5 569C565.563 569 671 669.288 671 793Z" fill="#FEE380"/>
</g>
</svg>
