<svg width="1440" height="620" viewBox="0 0 1440 620" fill="none" xmlns="http://www.w3.org/2000/svg">
<rect width="1440" height="620" fill="#F4883F"/>
<mask id="mask0" mask-type="alpha" maskUnits="userSpaceOnUse" x="0" y="0" width="1440" height="620">
<rect width="1440" height="620" fill="#F4883F"/>
</mask>
<g mask="url(#mask0)">
<path d="M660 -52C660 -5.05579 621.944 33 575 33C528.056 33 490 -5.05579 490 -52C490 -98.9442 528.056 -137 575 -137C621.944 -137 660 -98.9442 660 -52Z" fill="#FD9CC3"/>
<path d="M76 447C76 524.32 13.3199 587 -64 587C-141.32 587 -204 524.32 -204 447C-204 369.68 -141.32 307 -64 307C13.3199 307 76 369.68 76 447Z" fill="#906AC6"/>
<path fill-rule="evenodd" clip-rule="evenodd" d="M328 494.002V1086C328.333 1086 328.667 1086 329 1086C492.476 1086 625 953.476 625 790C625 626.524 492.476 494 329 494C328.667 494 328.333 494.001 328 494.002Z" fill="#FB4C42"/>
<path d="M2157 1105.5C2157 1492.38 1843.38 1806 1456.5 1806C1069.62 1806 756 1492.38 756 1105.5C756 718.625 1069.62 405 1456.5 405C1843.38 405 2157 718.625 2157 1105.5Z" fill="#FEE380"/>
</g>
</svg>
