<svg width="32" height="32" viewBox="0 0 32 32" fill="none" xmlns="http://www.w3.org/2000/svg">
<g clip-path="url(#clip0)">
<path d="M31.9686 9.40809C31.8936 7.7078 31.6187 6.53887 31.2248 5.52598C30.8185 4.45082 30.1933 3.48823 29.3743 2.68803C28.5741 1.87537 27.6052 1.2439 26.5425 0.843915C25.5237 0.450039 24.3609 0.175083 22.6606 0.100117C20.9477 0.0188025 20.4038 0 16.0592 0C11.7147 0 11.1708 0.0188025 9.46422 0.0937683C7.76394 0.168734 6.59501 0.443934 5.58236 0.837566C4.50696 1.2439 3.54437 1.86902 2.74416 2.68803C1.93151 3.48823 1.30028 4.45717 0.900055 5.51988C0.50618 6.53887 0.231224 7.70146 0.156258 9.40174C0.0749434 11.1147 0.0561409 11.6585 0.0561409 16.0031C0.0561409 20.3477 0.0749434 20.8915 0.149909 22.5982C0.224875 24.2984 0.500075 25.4674 0.89395 26.4803C1.30028 27.5554 1.93151 28.518 2.74416 29.3182C3.54437 30.1309 4.51331 30.7624 5.57601 31.1623C6.59501 31.5562 7.75759 31.8312 9.45811 31.9061C11.1645 31.9813 11.7086 31.9999 16.0531 31.9999C20.3977 31.9999 20.9415 31.9813 22.6482 31.9061C24.3485 31.8312 25.5174 31.5562 26.53 31.1623C28.6806 30.3309 30.3809 28.6306 31.2123 26.4803C31.606 25.4613 31.8812 24.2984 31.9561 22.5982C32.0311 20.8915 32.0499 20.3477 32.0499 16.0031C32.0499 11.6585 32.0436 11.1147 31.9686 9.40809ZM29.0869 22.4731C29.0181 24.0359 28.7556 24.8799 28.5368 25.4425C27.9991 26.8365 26.8927 27.943 25.4986 28.4807C24.936 28.6995 24.086 28.962 22.5293 29.0306C20.8414 29.1058 20.3352 29.1243 16.0656 29.1243C11.796 29.1243 11.2834 29.1058 9.6017 29.0306C8.03889 28.962 7.19498 28.6995 6.63237 28.4807C5.93863 28.2243 5.30716 27.8179 4.79461 27.2866C4.26326 26.7677 3.85693 26.1426 3.60053 25.4488C3.38174 24.8862 3.11924 24.0359 3.05062 22.4795C2.97541 20.7917 2.95685 20.2852 2.95685 16.0156C2.95685 11.7459 2.97541 11.2334 3.05062 9.55191C3.11924 7.98911 3.38174 7.14519 3.60053 6.58258C3.85693 5.8886 4.26326 5.25737 4.80096 4.74458C5.31961 4.21323 5.94474 3.8069 6.63872 3.55074C7.20133 3.33195 8.05159 3.06945 9.60805 3.00059C11.2959 2.92562 11.8023 2.90682 16.0717 2.90682C20.3477 2.90682 20.8539 2.92562 22.5356 3.00059C24.0984 3.06945 24.9423 3.33195 25.5049 3.55074C26.1987 3.8069 26.8301 4.21323 27.3427 4.74458C27.874 5.26348 28.2804 5.8886 28.5368 6.58258C28.7556 7.14519 29.0181 7.99521 29.0869 9.55191C29.1619 11.2397 29.1807 11.7459 29.1807 16.0156C29.1807 20.2852 29.1619 20.7853 29.0869 22.4731Z" fill="white"/>
<path d="M16.0591 7.78264C11.5209 7.78264 7.83875 11.4645 7.83875 16.003C7.83875 20.5415 11.5209 24.2233 16.0591 24.2233C20.5976 24.2233 24.2795 20.5415 24.2795 16.003C24.2795 11.4645 20.5976 7.78264 16.0591 7.78264ZM16.0591 21.3353C13.1149 21.3353 10.7268 18.9474 10.7268 16.003C10.7268 13.0586 13.1149 10.6707 16.0591 10.6707C19.0035 10.6707 21.3914 13.0586 21.3914 16.003C21.3914 18.9474 19.0035 21.3353 16.0591 21.3353V21.3353Z" fill="white"/>
<path d="M26.5242 7.45765C26.5242 8.51743 25.6649 9.37674 24.6049 9.37674C23.5451 9.37674 22.6858 8.51743 22.6858 7.45765C22.6858 6.39763 23.5451 5.53857 24.6049 5.53857C25.6649 5.53857 26.5242 6.39763 26.5242 7.45765V7.45765Z" fill="white"/>
</g>
<defs>
<clipPath id="clip0">
<rect width="32" height="32" fill="white"/>
</clipPath>
</defs>
</svg>
