<svg width="78" height="30" viewBox="0 0 78 30" fill="none" xmlns="http://www.w3.org/2000/svg">
<mask id="mask0" mask-type="alpha" maskUnits="userSpaceOnUse" x="0" y="0" width="22" height="30">
<path d="M17.4483 0H22V30H0L17.4483 0Z" fill="#222433"/>
</mask>
<g mask="url(#mask0)">
<path d="M17.4483 0H22V30H0L17.4483 0Z" fill="white"/>
<rect width="40.4157" height="40.8071" transform="matrix(0.687517 0.726169 -0.721688 0.692219 32.2694 -17.8378)" fill="white"/>
</g>
<path fill-rule="evenodd" clip-rule="evenodd" d="M42 29.9988C41.9376 29.9996 41.8751 30 41.8125 30C33.6318 30 27 23.2843 27 15C27 6.71573 33.6318 0 41.8125 0C41.8751 0 41.9376 0.000393134 42 0.0011771V29.9988Z" fill="white"/>
<mask id="mask1" mask-type="alpha" maskUnits="userSpaceOnUse" x="48" y="0" width="30" height="30">
<circle cx="63" cy="15" r="15" fill="#222433"/>
</mask>
<g mask="url(#mask1)">
<circle cx="63" cy="15" r="15" fill="white"/>
<rect x="62.8149" width="15" height="15" fill="white"/>
<rect x="47.9952" width="15" height="15" fill="white"/>
</g>
</svg>
