<svg width="32" height="32" viewBox="0 0 32 32" fill="none" xmlns="http://www.w3.org/2000/svg">
<path fill-rule="evenodd" clip-rule="evenodd" d="M26.6116 5.34412C23.805 2.53418 20.0724 0.986023 16.0959 0.984375C7.90189 0.984375 1.23318 7.65289 1.22989 15.8491C1.22879 18.4691 1.91324 21.0267 3.2142 23.2811L1.10519 30.9844L8.98587 28.9171C11.1573 30.1016 13.602 30.7258 16.0898 30.7266H16.096C24.2891 30.7266 30.9585 24.0575 30.9616 15.861C30.9633 11.8887 29.4184 8.15387 26.6116 5.34412ZM16.0959 28.216H16.0907C13.8737 28.2151 11.6993 27.6193 9.80197 26.4937L9.35098 26.2258L4.67447 27.4526L5.9227 22.8931L5.62881 22.4257C4.39194 20.4584 3.7388 18.1846 3.7399 15.85C3.74246 9.03754 9.28543 3.49512 16.1008 3.49512C19.4011 3.49622 22.5034 4.78308 24.8362 7.11859C27.169 9.4541 28.4529 12.5585 28.4518 15.86C28.4489 22.673 22.9063 28.216 16.0959 28.216V28.216ZM22.8733 18.962C22.502 18.776 20.6757 17.8777 20.3351 17.7535C19.9949 17.6296 19.747 17.5679 19.4996 17.9396C19.2519 18.3113 18.5401 19.1481 18.3233 19.3958C18.1065 19.6437 17.8901 19.6749 17.5186 19.4888C17.1471 19.303 15.9503 18.9106 14.5314 17.6451C13.4273 16.6602 12.6819 15.4438 12.4651 15.0721C12.2486 14.7001 12.4632 14.5184 12.628 14.3141C13.0301 13.8148 13.4328 13.2913 13.5565 13.0435C13.6805 12.7956 13.6184 12.5786 13.5254 12.3928C13.4328 12.2069 12.6899 10.3786 12.3805 9.63464C12.0787 8.91064 11.7727 9.00842 11.5446 8.99707C11.3282 8.98627 11.0804 8.98407 10.8327 8.98407C10.5851 8.98407 10.1826 9.0769 9.84207 9.44897C9.50168 9.82086 8.54221 10.7194 8.54221 12.5477C8.54221 14.376 9.8732 16.1422 10.0589 16.3901C10.2445 16.6381 12.6782 20.3899 16.4042 21.9987C17.2904 22.3817 17.9822 22.61 18.5218 22.7812C19.4117 23.064 20.2212 23.024 20.8614 22.9285C21.5751 22.8217 23.0588 22.0298 23.3686 21.1622C23.6781 20.2945 23.6781 19.5509 23.5851 19.3958C23.4924 19.2409 23.2447 19.1481 22.8733 18.962V18.962Z" fill="white"/>
</svg>
