<svg width="32" height="32" viewBox="0 0 32 32" fill="none" xmlns="http://www.w3.org/2000/svg">
<path d="M30.3662 8.50172C30.0205 7.21651 29.0072 6.20338 27.7222 5.85732C25.3746 5.21498 15.984 5.21498 15.984 5.21498C15.984 5.21498 6.59381 5.21498 4.24622 5.83296C2.9859 6.17867 1.94788 7.21669 1.60217 8.50172C0.984375 10.8491 0.984375 15.7174 0.984375 15.7174C0.984375 15.7174 0.984375 20.6101 1.60217 22.933C1.94824 24.218 2.96118 25.2312 4.2464 25.5772C6.61853 26.2197 15.9844 26.2197 15.9844 26.2197C15.9844 26.2197 25.3746 26.2197 27.7222 25.6018C29.0074 25.2559 30.0205 24.2428 30.3666 22.9577C30.9842 20.6101 30.9842 15.7421 30.9842 15.7421C30.9842 15.7421 31.0089 10.8491 30.3662 8.50172V8.50172ZM12.9943 20.2148V11.2199L20.803 15.7174L12.9943 20.2148Z" fill="white"/>
</svg>
